<?xml version="1.0" encoding="UTF-8" standalone="no"?>
<!DOCTYPE svg PUBLIC "-//W3C//DTD SVG 1.1//EN" "http://www.w3.org/Graphics/SVG/1.1/DTD/svg11.dtd">
<svg xmlns="http://www.w3.org/2000/svg" version="1.1" viewBox="0 0 1021 983" width="1021.0pt" height="983.0pt">
<path d="M 0.00 0.00 L 1021.00 0.00 L 1021.00 983.00 L 0.00 983.00 L 0.00 0.00 Z" fill="#000000" />
<path d="M 497.00 41.10 C 511.96 41.00 527.05 40.61 541.98 41.83 C 596.54 45.28 650.61 58.78 700.24 81.77 C 791.70 123.53 868.13 196.64 913.80 286.22 C 942.16 341.09 958.85 402.00 962.42 463.66 C 962.81 467.44 963.15 471.20 963.07 475.00 C 962.95 487.67 963.17 500.35 963.00 513.01 C 962.21 520.65 962.07 528.32 961.15 535.95 C 955.27 597.85 936.16 658.36 905.53 712.47 C 887.99 743.75 866.59 772.90 842.09 799.09 C 834.38 807.68 826.09 815.78 817.50 823.49 C 746.51 889.06 654.24 930.92 557.96 940.11 C 550.68 941.10 543.34 941.06 536.05 941.96 C 522.72 942.18 509.34 941.93 496.00 942.06 C 492.69 942.10 489.40 942.12 486.11 941.72 C 480.11 940.94 474.07 941.08 468.07 940.21 C 375.40 931.59 286.49 892.73 216.48 831.55 C 171.71 792.67 134.71 744.72 108.40 691.59 C 82.82 640.34 67.42 584.13 63.04 527.04 C 62.74 519.32 61.55 511.75 61.94 504.00 C 62.27 490.02 61.24 475.88 62.71 461.97 C 64.20 436.14 68.21 410.42 74.28 385.28 C 92.89 308.05 132.69 236.00 187.91 178.93 C 191.86 174.53 196.10 170.45 200.43 166.44 C 243.50 124.87 294.96 92.35 350.75 70.73 C 397.41 52.77 447.04 42.78 497.00 41.10 Z" fill="#2c2e3a" />
<path d="M 527.61 162.38 C 537.77 165.72 546.53 172.79 552.10 181.91 C 556.45 188.97 558.54 197.01 558.79 205.28 C 577.96 215.94 593.38 231.09 606.52 248.49 C 620.35 266.86 631.38 287.62 640.31 308.77 C 655.76 345.70 665.48 385.49 671.01 425.07 C 678.59 480.01 678.42 536.06 670.96 590.99 C 667.37 616.07 662.34 640.79 655.10 665.08 C 653.70 669.64 652.98 674.84 648.86 677.84 C 643.32 682.12 634.97 680.72 631.16 674.84 C 628.51 670.91 628.87 666.60 630.24 662.28 C 643.04 620.56 649.58 576.53 651.45 532.99 C 653.36 487.81 650.17 442.30 641.37 397.93 C 635.52 368.88 627.43 340.65 615.54 313.46 C 607.45 295.01 597.51 276.84 585.12 260.90 C 575.71 248.79 564.84 237.99 551.86 229.72 C 547.45 236.34 541.79 241.93 534.73 245.67 C 522.99 252.03 508.49 252.84 496.12 247.80 C 480.59 241.62 469.34 226.68 467.86 210.00 C 465.99 192.51 475.03 174.98 490.24 166.23 C 501.41 159.64 515.33 158.24 527.61 162.38 Z" fill="#cff7ff" />
<path d="M 507.47 185.49 C 511.84 184.25 516.60 184.48 520.84 186.14 C 529.55 189.52 535.11 198.74 533.91 208.04 C 532.86 217.73 524.74 225.59 515.02 226.36 C 503.89 227.48 493.59 219.05 492.44 207.95 C 491.21 197.92 497.73 188.15 507.47 185.49 Z" fill="#2c2e3a" />
<path d="M 361.00 295.22 C 382.43 295.02 403.88 297.18 424.93 301.11 C 431.25 302.39 435.52 308.69 434.40 315.05 C 433.33 321.81 426.77 326.39 420.02 325.13 C 398.83 321.49 377.53 319.18 356.00 319.97 C 334.07 320.72 310.69 324.71 291.15 335.13 C 276.82 342.76 264.88 354.19 258.39 369.25 C 253.56 380.58 252.10 392.76 252.91 404.99 C 254.33 426.04 262.41 447.21 272.31 465.69 C 274.40 469.80 277.82 474.23 277.32 479.04 C 276.92 484.64 272.59 489.38 267.04 490.23 C 261.73 491.08 256.77 488.50 254.20 483.84 C 241.52 461.63 231.36 436.60 228.70 411.01 C 226.58 390.75 229.48 370.31 239.29 352.29 C 250.46 331.54 269.43 316.77 291.02 307.96 C 313.10 298.89 337.26 295.58 361.00 295.22 Z" fill="#cff7ff" />
<path d="M 665.97 295.68 C 691.05 296.08 717.34 300.04 740.27 310.64 C 757.85 318.77 773.23 330.87 783.65 347.35 C 795.07 365.06 799.29 386.13 797.81 407.00 C 796.10 432.50 786.50 457.96 774.18 480.18 C 764.62 497.62 753.05 514.09 740.43 529.44 C 737.39 533.13 735.00 537.03 730.00 538.18 C 723.77 539.70 717.21 535.90 715.42 529.76 C 714.05 525.26 715.44 520.93 718.41 517.45 C 733.16 499.85 746.33 481.21 756.64 460.64 C 766.60 440.66 774.27 417.53 773.25 394.99 C 772.74 384.18 770.14 373.57 764.92 364.06 C 757.41 350.19 744.77 339.98 730.66 333.34 C 711.17 324.13 688.36 320.77 666.98 320.33 C 663.48 320.22 660.23 319.87 657.44 317.55 C 652.84 313.96 651.49 307.37 654.22 302.22 C 656.55 297.85 661.03 295.46 665.97 295.68 Z" fill="#cff7ff" />
<path d="M 587.29 304.26 C 591.14 303.35 594.98 303.41 598.35 305.68 C 603.73 309.14 605.47 316.66 602.17 322.14 C 600.08 325.81 596.52 327.52 592.53 328.38 C 548.79 338.03 506.59 354.44 466.87 375.03 C 418.08 400.54 372.35 432.37 333.12 471.12 C 310.36 493.74 289.09 519.41 273.59 547.59 C 262.16 568.44 253.07 592.41 252.89 616.44 C 260.30 616.78 267.52 618.35 274.07 621.95 C 285.89 628.22 294.57 639.82 297.18 652.96 C 300.58 669.08 294.58 686.40 281.91 696.91 C 268.49 708.41 248.73 710.89 232.86 703.15 C 221.85 697.89 213.18 688.10 209.37 676.50 C 205.58 665.23 206.48 652.44 211.82 641.82 C 215.56 634.20 221.41 628.06 228.44 623.40 C 228.20 616.57 228.31 609.76 229.11 602.98 C 232.16 576.23 243.37 550.02 257.06 527.05 C 275.60 496.03 300.06 468.01 326.40 443.39 C 342.36 428.52 359.23 414.69 376.85 401.84 C 417.35 372.32 461.57 347.82 508.02 329.01 C 533.79 318.72 560.20 310.28 587.29 304.26 Z" fill="#cff7ff" />
<path d="M 505.45 478.51 C 512.16 476.74 519.43 477.33 525.74 480.22 C 537.09 485.50 544.50 497.41 543.51 510.01 C 542.63 524.89 529.93 537.57 515.00 538.23 C 499.14 539.44 484.37 526.84 482.95 511.03 C 481.20 496.41 491.27 482.14 505.45 478.51 Z" fill="#cff7ff" />
<path d="M 309.05 524.40 C 313.66 524.55 316.63 527.23 319.58 530.43 C 340.80 553.42 364.39 573.88 389.53 592.46 C 439.79 629.14 496.24 658.75 555.71 677.29 C 586.72 686.87 619.52 693.73 652.00 694.98 C 678.73 695.95 707.45 693.21 731.81 681.40 C 728.68 673.96 727.05 666.07 727.84 657.98 C 728.92 645.04 735.86 632.93 746.34 625.30 C 760.48 614.84 780.31 613.65 795.56 622.43 C 811.36 631.19 820.62 649.36 818.42 667.31 C 816.47 685.62 802.74 701.50 784.92 706.09 C 772.42 709.52 759.38 707.07 748.39 700.43 C 741.50 704.24 734.40 707.39 726.95 709.94 C 698.95 719.51 667.80 721.05 638.50 718.82 C 607.18 716.38 575.90 709.50 545.97 700.07 C 505.03 687.09 465.61 669.13 428.55 647.45 C 381.64 619.94 338.22 586.77 301.13 546.87 C 298.45 544.03 296.25 541.10 296.22 537.01 C 295.94 529.97 302.03 524.03 309.05 524.40 Z" fill="#cff7ff" />
<path d="M 248.43 641.62 C 252.88 640.78 257.54 641.26 261.63 643.27 C 270.12 647.28 274.91 656.86 273.05 666.08 C 271.20 676.34 261.38 683.82 250.99 682.90 C 240.62 682.29 232.03 673.37 231.73 663.00 C 231.16 652.84 238.47 643.56 248.43 641.62 Z" fill="#2c2e3a" />
<path d="M 768.50 641.74 C 773.47 640.63 778.78 641.31 783.24 643.79 C 791.35 648.15 795.64 657.76 793.55 666.73 C 791.43 676.52 782.00 683.64 772.00 682.92 C 761.84 682.50 753.23 674.14 752.40 664.03 C 751.31 653.74 758.44 643.97 768.50 641.74 Z" fill="#2c2e3a" />
<path d="M 387.95 671.70 C 394.15 670.52 399.90 674.17 401.94 680.03 C 407.98 696.39 414.84 712.40 423.39 727.62 C 434.21 746.88 448.03 765.79 465.47 779.57 C 479.30 790.36 495.15 797.85 513.00 797.89 C 524.42 797.91 535.48 794.81 545.59 789.58 C 566.15 778.85 582.43 760.14 594.93 740.94 C 597.66 736.99 599.87 731.48 604.41 729.40 C 609.93 726.68 616.91 728.65 620.15 733.88 C 622.74 737.89 622.62 743.04 620.13 747.07 C 610.13 763.67 598.02 779.60 583.62 792.64 C 572.34 802.86 559.13 811.61 544.76 816.82 C 528.43 822.84 510.45 824.18 493.46 820.34 C 476.22 816.47 460.86 807.91 447.34 796.68 C 430.46 782.69 416.58 764.38 405.36 745.63 C 394.52 727.26 385.68 707.60 378.54 687.51 C 376.20 680.56 380.75 672.95 387.95 671.70 Z" fill="#cff7ff" />
</svg>